<svg width="16" height="17" viewBox="0 0 16 17" fill="none" xmlns="http://www.w3.org/2000/svg">
<path d="M5 8H11C11.1326 8 11.2598 8.05268 11.3536 8.14645C11.4473 8.24021 11.5 8.36739 11.5 8.5C11.5 8.63261 11.4473 8.75979 11.3536 8.85355C11.2598 8.94732 11.1326 9 11 9H5C4.86739 9 4.74021 8.94732 4.64645 8.85355C4.55268 8.75979 4.5 8.63261 4.5 8.5C4.5 8.36739 4.55268 8.24021 4.64645 8.14645C4.74021 8.05268 4.86739 8 5 8ZM6.5 11H4C3.33696 11 2.70107 10.7366 2.23223 10.2678C1.76339 9.79893 1.5 9.16304 1.5 8.5C1.5 7.83696 1.76339 7.20107 2.23223 6.73223C2.70107 6.26339 3.33696 6 4 6H6.5C6.63261 6 6.75979 5.94732 6.85355 5.85355C6.94732 5.75979 7 5.63261 7 5.5C7 5.36739 6.94732 5.24021 6.85355 5.14645C6.75979 5.05268 6.63261 5 6.5 5H4C3.07174 5 2.1815 5.36875 1.52513 6.02513C0.868749 6.6815 0.5 7.57174 0.5 8.5C0.5 9.42826 0.868749 10.3185 1.52513 10.9749C2.1815 11.6313 3.07174 12 4 12H6.5C6.63261 12 6.75979 11.9473 6.85355 11.8536C6.94732 11.7598 7 11.6326 7 11.5C7 11.3674 6.94732 11.2402 6.85355 11.1464C6.75979 11.0527 6.63261 11 6.5 11ZM12 5H9.5C9.36739 5 9.24021 5.05268 9.14645 5.14645C9.05268 5.24021 9 5.36739 9 5.5C9 5.63261 9.05268 5.75979 9.14645 5.85355C9.24021 5.94732 9.36739 6 9.5 6H12C12.663 6 13.2989 6.26339 13.7678 6.73223C14.2366 7.20107 14.5 7.83696 14.5 8.5C14.5 9.16304 14.2366 9.79893 13.7678 10.2678C13.2989 10.7366 12.663 11 12 11H9.5C9.36739 11 9.24021 11.0527 9.14645 11.1464C9.05268 11.2402 9 11.3674 9 11.5C9 11.6326 9.05268 11.7598 9.14645 11.8536C9.24021 11.9473 9.36739 12 9.5 12H12C12.9283 12 13.8185 11.6313 14.4749 10.9749C15.1313 10.3185 15.5 9.42826 15.5 8.5C15.5 7.57174 15.1313 6.6815 14.4749 6.02513C13.8185 5.36875 12.9283 5 12 5Z" fill="#808080"/>
</svg>
