<svg width="16" height="17" viewBox="0 0 16 17" fill="none" xmlns="http://www.w3.org/2000/svg">
<path d="M12 1.83203V3.16536M4 1.83203V3.16536" stroke="#999999" stroke-width="1.5" stroke-linecap="round" stroke-linejoin="round"/>
<path d="M7.9957 9.16797H8.0017M7.9957 11.8346H8.0017M10.6594 9.16797H10.6654M5.33203 9.16797H5.33801M5.33203 11.8346H5.33801" stroke="#999999" stroke-width="1.5" stroke-linecap="round" stroke-linejoin="round"/>
<path d="M2.33203 5.83203H13.6654" stroke="#999999" stroke-width="1.5" stroke-linecap="round" stroke-linejoin="round"/>
<path d="M1.66797 8.66213C1.66797 5.75729 1.66797 4.30485 2.50272 3.40243C3.33746 2.5 4.68096 2.5 7.36797 2.5H8.63464C11.3216 2.5 12.6652 2.5 13.4999 3.40243C14.3346 4.30485 14.3346 5.75729 14.3346 8.66213V9.00453C14.3346 11.9094 14.3346 13.3618 13.4999 14.2643C12.6652 15.1667 11.3216 15.1667 8.63464 15.1667H7.36797C4.68096 15.1667 3.33746 15.1667 2.50272 14.2643C1.66797 13.3618 1.66797 11.9094 1.66797 9.00453V8.66213Z" stroke="#999999" stroke-linecap="round" stroke-linejoin="round"/>
<path d="M2 5.83203H14" stroke="#999999" stroke-linecap="round" stroke-linejoin="round"/>
</svg>
