<svg width="20" height="20" viewBox="0 0 20 20" fill="none" xmlns="http://www.w3.org/2000/svg">
<path d="M19.0092 7.10177L8.97794 17.133C8.74354 17.3673 8.42572 17.4988 8.09434 17.4988C7.76296 17.4988 7.44515 17.3673 7.21075 17.133L1.61544 11.508C1.38143 11.2737 1.25 10.956 1.25 10.6248C1.25 10.2936 1.38143 9.97597 1.61544 9.74161L3.17794 8.17911C3.4122 7.94582 3.72935 7.81484 4.05997 7.81484C4.39058 7.81484 4.70773 7.94582 4.942 8.17911L8.12559 11.2666L15.685 3.8002C15.9193 3.56668 16.2366 3.43555 16.5674 3.43555C16.8982 3.43555 17.2155 3.56668 17.4498 3.8002L19.0084 5.32677C19.1256 5.44292 19.2187 5.58113 19.2822 5.73343C19.3457 5.88572 19.3785 6.04909 19.3785 6.2141C19.3786 6.37912 19.346 6.54251 19.2826 6.69487C19.2192 6.84722 19.1263 6.98551 19.0092 7.10177Z" fill="#43936C"/>
</svg>
