<svg width="16" height="17" viewBox="0 0 16 17" fill="none" xmlns="http://www.w3.org/2000/svg">
<path d="M6 10.5C6 8.6144 6 7.6716 6.58579 7.08579C7.1716 6.5 8.1144 6.5 10 6.5H10.6667C12.5523 6.5 13.4951 6.5 14.0809 7.08579C14.6667 7.6716 14.6667 8.6144 14.6667 10.5V11.1667C14.6667 13.0523 14.6667 13.9951 14.0809 14.5809C13.4951 15.1667 12.5523 15.1667 10.6667 15.1667H10C8.1144 15.1667 7.1716 15.1667 6.58579 14.5809C6 13.9951 6 13.0523 6 11.1667V10.5Z" stroke="#808080" stroke-linecap="round" stroke-linejoin="round"/>
<path d="M11.3339 6.49967C11.3323 4.52828 11.3025 3.50715 10.7287 2.80796C10.6179 2.67293 10.4941 2.54913 10.3591 2.43831C9.62145 1.83301 8.52565 1.83301 6.33398 1.83301C4.14233 1.83301 3.0465 1.83301 2.30894 2.43831C2.17391 2.54912 2.0501 2.67293 1.93929 2.80796C1.33398 3.54553 1.33398 4.64135 1.33398 6.83301C1.33398 9.02467 1.33398 10.1205 1.93929 10.8581C2.0501 10.9931 2.17391 11.1169 2.30894 11.2277C3.00812 11.8015 4.02926 11.8313 6.00065 11.8329" stroke="#808080" stroke-linecap="round" stroke-linejoin="round"/>
</svg>
