<svg width="16" height="17" viewBox="0 0 16 17" fill="none" xmlns="http://www.w3.org/2000/svg">
<g opacity="0.6">
<path d="M13 4.16699L12.5869 10.8504C12.4813 12.5579 12.4285 13.4117 12.0005 14.0256C11.7889 14.3291 11.5165 14.5852 11.2005 14.7777C10.5614 15.167 9.706 15.167 7.99513 15.167C6.28208 15.167 5.42553 15.167 4.78603 14.7769C4.46987 14.5841 4.19733 14.3275 3.98579 14.0235C3.55792 13.4087 3.5063 12.5537 3.40307 10.8438L3 4.16699" stroke="#CB3A31" stroke-width="1.5" stroke-linecap="round"/>
<path d="M2 4.16634H14M10.7038 4.16634L10.2487 3.22749C9.9464 2.60385 9.7952 2.29202 9.53447 2.09755C9.47667 2.05441 9.4154 2.01603 9.35133 1.98281C9.0626 1.83301 8.71607 1.83301 8.023 1.83301C7.31253 1.83301 6.95733 1.83301 6.66379 1.98909C6.59873 2.02368 6.53665 2.06361 6.47819 2.10845C6.21443 2.31081 6.06709 2.63404 5.77241 3.28051L5.36861 4.16634" stroke="#CB3A31" stroke-width="1.5" stroke-linecap="round"/>
<path d="M6.33398 11.5V7.5" stroke="#CB3A31" stroke-width="1.5" stroke-linecap="round"/>
<path d="M9.66602 11.5V7.5" stroke="#CB3A31" stroke-width="1.5" stroke-linecap="round"/>
</g>
</svg>
