<svg width="16" height="17" viewBox="0 0 16 17" fill="none" xmlns="http://www.w3.org/2000/svg">
<path d="M3.16025 10.079L4.46234 9.1544C4.82963 8.8936 5.20203 8.7188 5.62689 8.60567C6.11467 8.47574 6.33333 8.2096 6.33333 7.64067C6.33333 6.19752 9.66667 6.04396 9.66667 7.64067C9.66667 8.2096 9.88533 8.47574 10.3731 8.60567C10.8013 8.71967 11.1733 8.8956 11.5377 9.1544L12.8397 10.079C13.4289 10.4974 13.7031 10.6997 13.8561 11.0213C14 11.3239 14 11.6787 14 12.3883C14 13.6641 14 14.302 13.6428 14.7109C13.2101 15.2062 12.0853 15.1637 11.3945 15.1637H4.60555C3.91465 15.1637 2.81273 15.2324 2.3572 14.7109C2 14.302 2 13.6641 2 12.3883C2 11.6787 2 11.3239 2.14389 11.0213C2.29684 10.6997 2.57108 10.4974 3.16025 10.079Z" stroke="#808080"/>
<path d="M9.33268 11.8333C9.33268 12.5697 8.73575 13.1667 7.99935 13.1667C7.26295 13.1667 6.66602 12.5697 6.66602 11.8333C6.66602 11.0969 7.26295 10.5 7.99935 10.5C8.73575 10.5 9.33268 11.0969 9.33268 11.8333Z" stroke="#808080"/>
<path d="M4.64075 2.96515C3.76179 3.2161 3.12988 3.52741 2.55162 3.90303C1.63611 4.49773 1.24361 5.56936 1.35137 6.60342C1.39691 7.04045 1.74775 7.2494 2.15458 7.13637C2.46366 7.05047 2.77324 6.96686 3.08039 6.87576C3.97869 6.60931 4.18998 6.28541 4.31481 5.3659L4.64075 2.96515ZM4.64075 2.96515C6.81305 2.34495 9.18825 2.34495 11.3606 2.96515M11.3606 2.96515C12.2395 3.2161 12.8715 3.52741 13.4497 3.90303C14.3652 4.49773 14.7577 5.56936 14.6499 6.60342C14.6044 7.04045 14.2536 7.2494 13.8467 7.13637C13.5377 7.05047 13.2281 6.96686 12.9209 6.87576C12.0226 6.60931 11.8113 6.28541 11.6865 5.3659L11.3606 2.96515Z" stroke="#808080" stroke-linejoin="round"/>
</svg>
