<svg width="16" height="17" viewBox="0 0 16 17" fill="none" xmlns="http://www.w3.org/2000/svg">
<path d="M13.3327 9.16732V7.60525C13.3327 7.06022 13.3327 6.78772 13.2312 6.54269C13.1297 6.29766 12.937 6.10498 12.5516 5.7196L9.39395 2.5619C9.06135 2.22932 8.89508 2.06302 8.68902 1.96448C8.64615 1.94398 8.60228 1.9258 8.55748 1.90999C8.34208 1.83398 8.10695 1.83398 7.63655 1.83398C5.47323 1.83398 4.39156 1.83398 3.6589 2.4247C3.51089 2.54404 3.37607 2.67886 3.25673 2.82687C2.66602 3.55952 2.66602 4.6412 2.66602 6.80454V9.16732M8.66602 2.16732V2.50065C8.66602 4.38627 8.66602 5.32908 9.25182 5.91486C9.83762 6.50065 10.7804 6.50065 12.666 6.50065H12.9993" stroke="#666666" stroke-linecap="round" stroke-linejoin="round"/>
<path d="M13.1673 11.166H11.5007C11.1325 11.166 10.834 11.4645 10.834 11.8327V13.166M10.834 13.166V15.166M10.834 13.166H12.834M2.83398 15.166V13.4993M2.83398 13.4993V11.166H4.00065C4.64498 11.166 5.16732 11.6883 5.16732 12.3327C5.16732 12.977 4.64498 13.4993 4.00065 13.4993H2.83398ZM6.83398 11.166H7.83398C8.57038 11.166 9.16732 11.7629 9.16732 12.4993V13.8327C9.16732 14.5691 8.57038 15.166 7.83398 15.166H6.83398V11.166Z" stroke="#666666" stroke-linecap="round" stroke-linejoin="round"/>
</svg>
