<svg width="16" height="17" viewBox="0 0 16 17" fill="none" xmlns="http://www.w3.org/2000/svg">
<path d="M4.66602 6.08653H7.66602M7.66602 6.08653H9.66602M7.66602 6.08653V5.16699M11.3327 6.08653H9.66602M9.66602 6.08653C9.31435 7.34406 8.57795 8.53279 7.73742 9.57753M7.73742 9.57753C7.04142 10.4426 6.27405 11.2089 5.59459 11.8337M7.73742 9.57753C7.30888 9.07506 6.70888 8.26206 6.53744 7.89426M7.73742 9.57753L9.02315 10.9141" stroke="#808080" stroke-linecap="round" stroke-linejoin="round"/>
<path d="M1.66602 8.50033C1.66602 5.51477 1.66602 4.02199 2.59351 3.09449C3.52101 2.16699 5.01379 2.16699 7.99935 2.16699C10.9849 2.16699 12.4777 2.16699 13.4052 3.09449C14.3327 4.02199 14.3327 5.51477 14.3327 8.50033C14.3327 11.4859 14.3327 12.9787 13.4052 13.9062C12.4777 14.8337 10.9849 14.8337 7.99935 14.8337C5.01379 14.8337 3.52101 14.8337 2.59351 13.9062C1.66602 12.9787 1.66602 11.4859 1.66602 8.50033Z" stroke="#808080"/>
</svg>
