<svg width="16" height="17" viewBox="0 0 16 17" fill="none" xmlns="http://www.w3.org/2000/svg">
<path d="M6.66602 9.31966C6.76042 9.47426 6.87248 9.62059 7.00215 9.75553C7.80715 10.5933 9.03415 10.7243 9.97108 10.1485C10.1447 10.0417 10.3083 9.91079 10.4575 9.75553L12.6171 7.50793C13.5712 6.51489 13.5712 4.90483 12.6171 3.91178C11.6629 2.91873 10.1159 2.91873 9.16168 3.91178L8.68602 4.40685" stroke="#808080" stroke-linecap="round"/>
<path d="M7.31288 12.5933L6.83702 13.0885C5.88286 14.0816 4.33582 14.0816 3.38165 13.0885C2.42747 12.0955 2.42747 10.4855 3.38165 9.4924L5.54126 7.2448C6.49544 6.25174 8.04248 6.25173 8.99662 7.2448C9.12628 7.37966 9.23828 7.526 9.33268 7.68053" stroke="#808080" stroke-linecap="round"/>
</svg>
