<svg width="16" height="17" viewBox="0 0 16 17" fill="none" xmlns="http://www.w3.org/2000/svg">
<path d="M2.84651 13.0631C2.99643 14.1767 3.91872 15.049 5.04108 15.1006C5.98548 15.144 6.94484 15.1667 8.0013 15.1667C9.05777 15.1667 10.0171 15.144 10.9615 15.1006C12.0839 15.049 13.0062 14.1767 13.1561 13.0631C13.254 12.3365 13.3346 11.5917 13.3346 10.8333C13.3346 10.0749 13.254 9.3302 13.1561 8.60353C13.0062 7.49 12.0839 6.61766 10.9615 6.56606C10.0171 6.52265 9.05777 6.5 8.0013 6.5C6.94484 6.5 5.98548 6.52265 5.04108 6.56606C3.91872 6.61766 2.99643 7.49 2.84651 8.60353C2.74867 9.3302 2.66797 10.0749 2.66797 10.8333C2.66797 11.5917 2.74867 12.3365 2.84651 13.0631Z" stroke="#999999"/>
<path d="M5 6.4987V4.83203C5 3.17518 6.34315 1.83203 8 1.83203C9.65687 1.83203 11 3.17518 11 4.83203V6.4987" stroke="#999999" stroke-linecap="round" stroke-linejoin="round"/>
<path d="M10.668 10.8262V10.8328" stroke="#999999" stroke-width="1.5" stroke-linecap="round" stroke-linejoin="round"/>
<path d="M8 10.8281V10.8348" stroke="#999999" stroke-width="1.5" stroke-linecap="round" stroke-linejoin="round"/>
<path d="M5.33203 10.8262V10.8328" stroke="#999999" stroke-width="1.5" stroke-linecap="round" stroke-linejoin="round"/>
</svg>
