<svg width="16" height="17" viewBox="0 0 16 17" fill="none" xmlns="http://www.w3.org/2000/svg">
<path d="M14.6673 7.16634V6.64467C14.6673 5.35159 14.6673 4.70505 14.2768 4.30334C13.8863 3.90163 13.2577 3.90163 12.0007 3.90163H10.6149C10.0033 3.90163 9.99825 3.90045 9.44832 3.62523L7.22725 2.51377C6.29988 2.0497 5.8362 1.81767 5.34224 1.83379C4.84827 1.84992 4.39983 2.11173 3.50295 2.63535L2.68437 3.11325C2.02558 3.49787 1.69618 3.69018 1.51508 4.0101C1.33398 4.33003 1.33398 4.71963 1.33398 5.49883V10.9768C1.33398 12.0006 1.33398 12.5125 1.56216 12.7975C1.71399 12.987 1.92676 13.1145 2.16198 13.1567C2.51549 13.2202 2.9483 12.9675 3.8139 12.4621C4.40169 12.119 4.96739 11.7626 5.67056 11.8593C6.25978 11.9402 6.80732 12.312 7.33398 12.5755" stroke="#808080" stroke-linecap="round" stroke-linejoin="round"/>
<path d="M5.33398 1.83301V11.833" stroke="#808080" stroke-linejoin="round"/>
<path d="M10 3.83301V6.83301" stroke="#808080" stroke-linecap="round" stroke-linejoin="round"/>
<path d="M12.2049 14.9557C12.0603 15.091 11.8671 15.1667 11.6661 15.1667C11.465 15.1667 11.2718 15.091 11.1273 14.9557C9.80355 13.7087 8.02968 12.3157 8.89475 10.2932C9.36248 9.19973 10.4853 8.5 11.6661 8.5C12.8469 8.5 13.9697 9.19973 14.4374 10.2932C15.3014 12.3131 13.5319 13.7129 12.2049 14.9557Z" stroke="#808080"/>
<path d="M11.666 11.5H11.672" stroke="#808080" stroke-width="1.5" stroke-linecap="round" stroke-linejoin="round"/>
</svg>
