<svg width="16" height="17" viewBox="0 0 16 17" fill="none" xmlns="http://www.w3.org/2000/svg">
<path d="M5.66602 10.1663H10.3327M5.66602 6.83301H7.99935" stroke="#808080" stroke-linecap="round" stroke-linejoin="round"/>
<path d="M9.44772 14.4273C12.2364 14.242 14.4577 11.9891 14.6405 9.16093C14.6763 8.60746 14.6763 8.03426 14.6405 7.48079C14.4577 4.65258 12.2364 2.39975 9.44772 2.21437C8.49632 2.15113 7.50305 2.15127 6.55358 2.21437C3.76491 2.39975 1.54359 4.65258 1.36081 7.48079C1.32504 8.03426 1.32504 8.60746 1.36081 9.16093C1.42738 10.191 1.88294 11.1447 2.41926 11.9501C2.73066 12.5139 2.52514 13.2175 2.20079 13.8322C1.96692 14.2754 1.84999 14.497 1.94388 14.6571C2.03777 14.8171 2.24749 14.8223 2.66694 14.8325C3.49643 14.8527 4.05577 14.6175 4.49977 14.2901C4.75158 14.1044 4.8775 14.0115 4.96428 14.0009C5.05105 13.9902 5.22183 14.0605 5.56332 14.2012C5.87025 14.3276 6.22662 14.4056 6.55358 14.4273C7.50305 14.4905 8.49632 14.4906 9.44772 14.4273Z" stroke="#808080" stroke-linejoin="round"/>
</svg>
