<svg width="16" height="17" viewBox="0 0 16 17" fill="none" xmlns="http://www.w3.org/2000/svg">
<path d="M13.0003 9.16667V7.16667C13.0003 4.96678 13.0003 3.86683 12.3169 3.18342C11.6335 2.5 10.5335 2.5 8.33366 2.5H6.33366C4.13377 2.5 3.03383 2.5 2.35041 3.18342C1.66699 3.86683 1.66699 4.96678 1.66699 7.16667V10.5C1.66699 12.6999 1.66699 13.7998 2.35041 14.4833C3.03383 15.1667 4.13377 15.1667 6.33366 15.1667H7.33366" stroke="black" stroke-width="1.5" stroke-linecap="round" stroke-linejoin="round"/>
<path d="M10.6667 1.83301V3.16634M7.33333 1.83301V3.16634M4 1.83301V3.16634" stroke="black" stroke-width="1.5" stroke-linecap="round" stroke-linejoin="round"/>
<path d="M9 13.8337C9 13.8337 9.66667 13.8337 10.3333 15.167C10.3333 15.167 12.451 11.8337 14.3333 11.167" stroke="black" stroke-width="1.5" stroke-linecap="round" stroke-linejoin="round"/>
<path d="M4.66699 10.5003H7.33366M4.66699 7.16699H10.0003" stroke="black" stroke-width="1.5" stroke-linecap="round"/>
</svg>
