<svg width="20" height="20" viewBox="0 0 20 20" fill="none" xmlns="http://www.w3.org/2000/svg">
<path d="M8.57498 18.3011H7.82658C5.11949 18.3011 3.76595 18.3011 2.92497 17.4469C2.08398 16.5925 2.08398 15.2176 2.08398 12.4678V8.3011C2.08398 5.55124 2.08398 4.17632 2.92497 3.32205C3.76595 2.46777 5.11949 2.46777 7.82658 2.46777H10.2877C12.9947 2.46777 14.5762 2.51376 15.4173 3.36803C16.2583 4.2223 16.2507 5.55124 16.2507 8.3011V9.28977" stroke="#808080" stroke-width="1.5" stroke-linecap="round" stroke-linejoin="round"/>
<path d="M13.2884 1.66699V3.33366M9.12174 1.66699V3.33366M4.95508 1.66699V3.33366" stroke="#808080" stroke-width="1.5" stroke-linecap="round" stroke-linejoin="round"/>
<path d="M5.83398 12.4997H9.16732M5.83398 8.33301H12.5007" stroke="#808080" stroke-width="1.5" stroke-linecap="round"/>
<path opacity="0.93" d="M17.2999 12.3991C16.5454 11.5537 16.0927 11.6041 15.5897 11.755C15.2376 11.8053 14.0304 13.2143 13.5274 13.663C12.7016 14.4789 11.872 15.3189 11.8173 15.4285C11.6609 15.6826 11.5155 16.133 11.4451 16.6361C11.3143 17.391 11.1256 18.2407 11.3646 18.3136C11.6035 18.3863 12.2699 18.2465 13.0244 18.1357C13.5274 18.0451 13.8795 17.9445 14.131 17.7936C14.4831 17.5822 15.137 16.8375 16.2637 15.7304C16.9704 14.9864 17.6519 14.4723 17.8532 13.9691C18.0544 13.2143 17.7526 12.8117 17.2999 12.3991Z" stroke="#808080" stroke-width="1.5"/>
</svg>
