<svg width="16" height="17" viewBox="0 0 16 17" fill="none" xmlns="http://www.w3.org/2000/svg">
<path d="M9.33398 15.1663V5.83301C9.33398 3.94739 9.33398 3.00458 8.74818 2.41879C8.16238 1.83301 7.21958 1.83301 5.33398 1.83301C3.44836 1.83301 2.50556 1.83301 1.91977 2.41879C1.33398 3.00458 1.33398 3.94739 1.33398 5.83301V11.1663C1.33398 13.0519 1.33398 13.9947 1.91977 14.5805C2.50556 15.1663 3.44836 15.1663 5.33398 15.1663H9.33398Z" stroke="#808080" stroke-linecap="round"/>
<path d="M4.33268 7.83366H3.66602M6.99935 7.83366H6.33268M4.33268 5.16699H3.66602M4.33268 10.5003H3.66602M6.99935 5.16699H6.33268M6.99935 10.5003H6.33268" stroke="#808080" stroke-linecap="round"/>
<path d="M12.3327 10.4997H11.666M12.3327 7.83301H11.666" stroke="#808080" stroke-linecap="round"/>
<path d="M12.0007 5.83301H9.33398V15.1663H12.0007C13.2577 15.1663 13.8863 15.1663 14.2768 14.7758C14.6673 14.3853 14.6673 13.7567 14.6673 12.4997V8.49967C14.6673 7.24261 14.6673 6.61405 14.2768 6.22353C13.8863 5.83301 13.2577 5.83301 12.0007 5.83301Z" stroke="#808080" stroke-linecap="round"/>
</svg>
