<svg width="16" height="17" viewBox="0 0 16 17" fill="none" xmlns="http://www.w3.org/2000/svg">
<path d="M6.1055 4.30815L5.83707 3.70417C5.66155 3.30925 5.57379 3.11179 5.44254 2.96067C5.27805 2.77129 5.06364 2.63196 4.82378 2.55857C4.63239 2.5 4.4163 2.5 3.98414 2.5C3.35194 2.5 3.03584 2.5 2.77048 2.62153C2.45791 2.76468 2.17562 3.07552 2.06315 3.4004C1.96767 3.67619 1.99502 3.95962 2.04972 4.52647C2.63194 10.5601 5.93988 13.8681 11.9735 14.4503C12.5404 14.505 12.8238 14.5323 13.0996 14.4369C13.4245 14.3244 13.7353 14.0421 13.8785 13.7295C14 13.4641 14 13.1481 14 12.5159C14 12.0837 14 11.8676 13.9414 11.6762C13.868 11.4363 13.7287 11.2219 13.5393 11.0575C13.3882 10.9262 13.1908 10.8385 12.7958 10.6629L12.1918 10.3945C11.7642 10.2044 11.5503 10.1094 11.333 10.0887C11.125 10.0689 10.9154 10.0981 10.7207 10.1739C10.5173 10.2531 10.3376 10.4029 9.97797 10.7025C9.6201 11.0008 9.44117 11.1499 9.2225 11.2298C9.02864 11.3006 8.77237 11.3269 8.56824 11.2967C8.3379 11.2628 8.16157 11.1686 7.80884 10.9801C6.7115 10.3937 6.10635 9.78853 5.51991 8.69113C5.33143 8.33847 5.23718 8.16207 5.20324 7.9318C5.17316 7.7276 5.19938 7.47133 5.2702 7.27753C5.35008 7.05885 5.49921 6.87991 5.79746 6.522C6.09708 6.16245 6.24689 5.98268 6.3261 5.77927C6.4019 5.58463 6.43108 5.37493 6.4113 5.16699C6.39063 4.94968 6.29558 4.73584 6.1055 4.30815Z" stroke="#808080" stroke-linecap="round"/>
</svg>
