<svg width="17" height="15" viewBox="0 0 17 15" fill="none" xmlns="http://www.w3.org/2000/svg">
<path d="M15.7383 4.64449C15.5637 4.44676 15.3491 4.28842 15.1087 4.18C14.8682 4.07158 14.6075 4.01554 14.3438 4.01562H10.8906V3.21875C10.8897 2.44409 10.5816 1.70141 10.0339 1.15364C9.48609 0.605876 8.74341 0.297754 7.96875 0.296875C7.82082 0.296892 7.67582 0.338086 7.54997 0.415845C7.42413 0.493604 7.32241 0.604857 7.25621 0.737148L4.81977 5.60938H2.125C1.77276 5.60938 1.43495 5.7493 1.18587 5.99837C0.936802 6.24745 0.796875 6.58526 0.796875 6.9375V12.7812C0.796875 13.1335 0.936802 13.4713 1.18587 13.7204C1.43495 13.9694 1.77276 14.1094 2.125 14.1094H13.5469C14.0001 14.1093 14.4376 13.9437 14.7773 13.6438C15.117 13.3438 15.3355 12.9301 15.3916 12.4804L16.1885 6.10543C16.2213 5.84392 16.1981 5.57842 16.1205 5.32655C16.0429 5.07468 15.9126 4.84219 15.7383 4.64449ZM2.39062 7.20312H4.51562V12.5156H2.39062V7.20312ZM14.6094 5.9082L13.8125 12.2832C13.8044 12.3478 13.7728 12.4071 13.7239 12.4499C13.6749 12.4928 13.6119 12.5161 13.5469 12.5156H6.10938V6.59418L8.42164 1.97031C8.67808 2.06333 8.89966 2.23306 9.05625 2.45643C9.21284 2.67979 9.29686 2.94596 9.29688 3.21875V4.8125C9.29688 5.02384 9.38083 5.22653 9.53027 5.37598C9.67972 5.52542 9.88241 5.60938 10.0938 5.60938H14.3438C14.3816 5.60908 14.4191 5.61688 14.4537 5.63225C14.4883 5.64763 14.5192 5.67022 14.5444 5.69852C14.5695 5.72682 14.5883 5.76017 14.5995 5.79633C14.6108 5.8325 14.6141 5.87064 14.6094 5.9082Z" fill="#43936C"/>
</svg>
