<svg width="17" height="17" viewBox="0 0 17 17" fill="none" xmlns="http://www.w3.org/2000/svg">
<path d="M15.7383 5.14449C15.5637 4.94676 15.3491 4.78842 15.1087 4.68C14.8682 4.57158 14.6075 4.51554 14.3438 4.51562H10.8906V3.71875C10.8897 2.94409 10.5816 2.20141 10.0339 1.65364C9.48609 1.10588 8.74341 0.797754 7.96875 0.796875C7.82082 0.796892 7.67582 0.838086 7.54997 0.915845C7.42413 0.993604 7.32241 1.10486 7.25621 1.23715L4.81977 6.10938H2.125C1.77276 6.10938 1.43495 6.2493 1.18587 6.49837C0.936802 6.74745 0.796875 7.08526 0.796875 7.4375V13.2812C0.796875 13.6335 0.936802 13.9713 1.18587 14.2204C1.43495 14.4694 1.77276 14.6094 2.125 14.6094H13.5469C14.0001 14.6093 14.4376 14.4437 14.7773 14.1438C15.117 13.8438 15.3355 13.4301 15.3916 12.9804L16.1885 6.60543C16.2213 6.34392 16.1981 6.07842 16.1205 5.82655C16.0429 5.57468 15.9126 5.34219 15.7383 5.14449ZM2.39062 7.70312H4.51562V13.0156H2.39062V7.70312ZM14.6094 6.4082L13.8125 12.7832C13.8044 12.8478 13.7728 12.9071 13.7239 12.9499C13.6749 12.9928 13.6119 13.0161 13.5469 13.0156H6.10938V7.09418L8.42164 2.47031C8.67808 2.56333 8.89966 2.73306 9.05625 2.95643C9.21284 3.17979 9.29686 3.44596 9.29688 3.71875V5.3125C9.29688 5.52384 9.38083 5.72653 9.53027 5.87598C9.67972 6.02542 9.88241 6.10938 10.0938 6.10938H14.3438C14.3816 6.10908 14.4191 6.11688 14.4537 6.13225C14.4883 6.14763 14.5192 6.17022 14.5444 6.19852C14.5695 6.22682 14.5883 6.26017 14.5995 6.29633C14.6108 6.3325 14.6141 6.37064 14.6094 6.4082Z" fill="#808080"/>
</svg>
