<svg width="20" height="21" viewBox="0 0 20 21" fill="none" xmlns="http://www.w3.org/2000/svg">
<path d="M6.97904 3C6.80078 3.06661 6.62547 3.13927 6.45336 3.21772M17.264 14.0843C17.3492 13.8999 17.4277 13.7118 17.4993 13.5204M15.4149 16.6373C15.558 16.5037 15.6963 16.3651 15.8295 16.2217M12.7233 18.3103C12.8851 18.2493 13.0443 18.1833 13.201 18.1126M10.1293 18.8283C9.93684 18.8349 9.74309 18.8349 9.55059 18.8283M6.48868 18.117C6.63935 18.1848 6.79245 18.2482 6.9478 18.3069M3.89305 16.2673C4.00696 16.3881 4.1245 16.5053 4.24551 16.619M2.19317 13.5538C2.25557 13.7185 2.32315 13.8808 2.39569 14.0403M1.67007 10.9211C1.66466 10.7477 1.66467 10.5732 1.67007 10.3995M2.18713 7.78095C2.24843 7.61804 2.31479 7.45761 2.38601 7.29983M3.87927 5.06603C3.99982 4.93762 4.12447 4.81311 4.25301 4.6927" stroke="#CD7B2E" stroke-width="1.5" stroke-linecap="round" stroke-linejoin="round"/>
<path d="M11.25 10.5C11.25 11.1903 10.6903 11.75 10 11.75C9.30967 11.75 8.75 11.1903 8.75 10.5C8.75 9.80967 9.30967 9.25 10 9.25M11.25 10.5C11.25 9.80967 10.6903 9.25 10 9.25M11.25 10.5H13.3333M10 9.25V5.5" stroke="#CD7B2E" stroke-width="1.5" stroke-linecap="round"/>
<path d="M18.3333 10.4993C18.3333 5.89697 14.6023 2.16602 10 2.16602" stroke="#CD7B2E" stroke-width="1.5" stroke-linecap="round"/>
</svg>
