<svg width="16" height="17" viewBox="0 0 16 17" fill="none" xmlns="http://www.w3.org/2000/svg">
<path d="M4.38505 10.8208C3.44187 11.3824 0.968909 12.5291 2.47511 13.9641C3.21088 14.665 4.03033 15.1664 5.06058 15.1664H10.9394C11.9697 15.1664 12.7891 14.665 13.5249 13.9641C15.0311 12.5291 12.5581 11.3824 11.6149 10.8208C9.4032 9.50376 6.5968 9.50376 4.38505 10.8208Z" stroke="#808080" stroke-linecap="round" stroke-linejoin="round"/>
<path d="M11 4.83301C11 6.48986 9.65687 7.83301 8 7.83301C6.34315 7.83301 5 6.48986 5 4.83301C5 3.17615 6.34315 1.83301 8 1.83301C9.65687 1.83301 11 3.17615 11 4.83301Z" stroke="#808080"/>
</svg>
