<svg width="16" height="17" viewBox="0 0 16 17" fill="none" xmlns="http://www.w3.org/2000/svg">
<path d="M6.9987 15.1654H4.39261C3.36236 15.1654 2.54291 14.664 1.80714 13.9631C0.300942 12.5281 2.7739 11.3814 3.71708 10.8198C5.4174 9.80729 7.46917 9.57322 9.33203 10.1174" stroke="#808080" stroke-linecap="round" stroke-linejoin="round"/>
<path d="M11 4.83203C11 6.48888 9.65687 7.83203 8 7.83203C6.34315 7.83203 5 6.48888 5 4.83203C5 3.17518 6.34315 1.83203 8 1.83203C9.65687 1.83203 11 3.17518 11 4.83203Z" stroke="#808080"/>
<path d="M12.2901 9.73365C12.5136 9.49138 12.6254 9.37032 12.7442 9.29965C13.0308 9.12918 13.3837 9.12392 13.6751 9.28565C13.7958 9.35272 13.911 9.47045 14.1415 9.70578C14.3719 9.94118 14.4871 10.0589 14.5528 10.1822C14.7111 10.4799 14.7059 10.8404 14.539 11.1332C14.4699 11.2545 14.3514 11.3687 14.1142 11.5971L11.2932 14.3142C10.8438 14.747 10.6192 14.9634 10.3384 15.0731C10.0576 15.1828 9.74889 15.1747 9.13156 15.1586L9.04756 15.1564C8.85963 15.1514 8.76569 15.149 8.71103 15.087C8.65643 15.025 8.66389 14.9292 8.67876 14.7378L8.68689 14.6338C8.72889 14.095 8.74983 13.8256 8.85509 13.5834C8.96029 13.3412 9.14176 13.1446 9.50476 12.7513L12.2901 9.73365Z" stroke="#808080" stroke-linejoin="round"/>
</svg>
