<svg width="20" height="20" viewBox="0 0 20 20" fill="none" xmlns="http://www.w3.org/2000/svg">
<path d="M16.1985 12.8671C16.969 12.1023 17.5639 11.3422 17.9527 10.7971C18.206 10.4419 18.3327 10.2642 18.3327 10.0013C18.3327 9.73839 18.206 9.56072 17.9527 9.20547C16.8143 7.60917 13.907 4.16797 9.99935 4.16797C9.24285 4.16797 8.52385 4.29694 7.84791 4.51653M5.6222 5.62415C3.942 6.7573 2.70114 8.28685 2.04605 9.20547C1.79269 9.56072 1.66602 9.73839 1.66602 10.0013C1.66602 10.2642 1.79269 10.4419 2.04605 10.7971C3.18443 12.3935 6.09167 15.8346 9.99935 15.8346C11.6583 15.8346 13.1369 15.2144 14.3765 14.3785" stroke="#999999" stroke-width="1.5" stroke-linecap="round" stroke-linejoin="round"/>
<path d="M8.21488 8.33203C7.77319 8.7737 7.5 9.38395 7.5 10.0579C7.5 11.4059 8.59275 12.4987 9.94075 12.4987C10.6147 12.4987 11.225 12.2255 11.6667 11.7838" stroke="#999999" stroke-width="1.5" stroke-linecap="round"/>
<path d="M2.5 2.5L17.5 17.5" stroke="#999999" stroke-width="1.5" stroke-linecap="round" stroke-linejoin="round"/>
</svg>
