<svg width="16" height="17" viewBox="0 0 16 17" fill="none" xmlns="http://www.w3.org/2000/svg">
<path d="M12.3344 12.8333L14 14.5M13.3333 10.1667C13.3333 8.1416 11.6917 6.5 9.66667 6.5C7.6416 6.5 6 8.1416 6 10.1667C6 12.1917 7.6416 13.8333 9.66667 13.8333C11.6917 13.8333 13.3333 12.1917 13.3333 10.1667Z" stroke="#808080" stroke-linecap="round" stroke-linejoin="round"/>
<path d="M11.0007 10.166H8.33398" stroke="#808080" stroke-linecap="round" stroke-linejoin="round"/>
<path d="M6.66667 2.5H9.33333M2 7.16667V9.83333M4.33333 14.5C3.04467 14.5 2 13.4553 2 12.1667M11.6667 2.5C12.9553 2.5 14 3.54467 14 4.83333M2 4.83333C2 3.54467 3.04467 2.5 4.33333 2.5" stroke="#808080" stroke-linecap="round" stroke-linejoin="round"/>
</svg>
